<svg width="64" height="64" viewBox="0 0 64 64" fill="none" xmlns="http://www.w3.org/2000/svg">
<circle cx="32" cy="32" r="32" fill="black"/>
<path d="M30.46 38.3893C30.5883 38.4901 30.7166 38.5818 30.8541 38.6826C31.8991 39.4435 32.9533 40.0485 34.0075 40.4976C35.0616 40.9468 36.0608 41.1668 36.9958 41.1668C37.6375 41.1668 38.2333 41.0476 38.7833 40.8185C39.3425 40.5893 39.8375 40.2318 40.2866 39.7368C40.5525 39.4435 40.7541 39.1318 40.91 38.8018C41.0658 38.4718 41.1391 38.1326 41.1391 37.8026C41.1391 37.546 41.0841 37.3168 40.9925 37.0876C40.8916 36.8584 40.7266 36.666 40.4883 36.501L37.4541 34.3468C37.225 34.191 37.0141 34.0718 36.8125 33.9893C36.6108 33.9068 36.4275 33.8701 36.2533 33.8701C36.0241 33.8701 35.8133 33.9343 35.6025 34.0626C35.3916 34.1726 35.1716 34.3468 34.9425 34.576L34.2458 35.2635C34.145 35.3643 34.0258 35.4193 33.87 35.4193C33.7875 35.4193 33.7141 35.4101 33.6408 35.3826C33.5766 35.3551 33.5216 35.3276 33.4758 35.3093C33.3016 35.2176 33.1 35.0893 32.88 34.9243" stroke="white" stroke-width="1.83333" stroke-miterlimit="10" stroke-linecap="round" stroke-linejoin="round"/>
<path d="M30.8358 33.118C30.3591 32.6322 29.9191 32.1463 29.5066 31.6697C29.1033 31.193 28.8191 30.7988 28.6541 30.4963C28.6358 30.4413 28.6083 30.3863 28.5808 30.313C28.5624 30.2397 28.5533 30.1755 28.5533 30.1022C28.5533 29.9555 28.5991 29.8363 28.6999 29.7355L29.3966 29.0113C29.6166 28.7913 29.7908 28.5713 29.9099 28.3605C30.0383 28.1497 30.1024 27.9297 30.1024 27.7097C30.1024 27.5355 30.0566 27.343 29.9741 27.1505C29.8916 26.9488 29.7724 26.738 29.6074 26.5088L27.4808 23.5113C27.3158 23.273 27.1049 23.108 26.8666 22.998C26.6374 22.888 26.3808 22.833 26.1241 22.833C25.4458 22.833 24.8041 23.1172 24.2174 23.6947C23.7316 24.153 23.3833 24.6663 23.1633 25.2255C22.9433 25.7755 22.8333 26.3713 22.8333 26.9947C22.8333 27.948 23.0533 28.9472 23.4933 29.9922C23.9333 31.028 24.5383 32.073 25.2899 33.118C26.0508 34.163 26.9033 35.1622 27.8474 36.1155" stroke="white" stroke-width="1.83333" stroke-miterlimit="10" stroke-linecap="round" stroke-linejoin="round"/>
<path d="M41.1666 22.833L22.8333 41.1663" stroke="white" stroke-width="1.83333" stroke-linecap="round" stroke-linejoin="round"/>
</svg>
